<mxfile host="app.diagrams.net" modified="2023-09-18T09:50:37.460Z" agent="Mozilla/5.0 (Windows NT 10.0; Win64; x64) AppleWebKit/537.36 (KHTML, like Gecko) Chrome/116.0.0.0 Safari/537.36" etag="REK5Q3pK63CFLp_7jkUE" version="21.7.2" type="device">
  <diagram name="Страница — 1" id="xIHzZWK0bw2Ru02BTdqz">
    <mxGraphModel dx="1235" dy="638" grid="1" gridSize="10" guides="1" tooltips="1" connect="1" arrows="1" fold="1" page="1" pageScale="1" pageWidth="827" pageHeight="1169" math="0" shadow="0">
      <root>
        <mxCell id="0" />
        <mxCell id="1" parent="0" />
        <mxCell id="6rtu0sULZkxl0jV3cqLl-7" value="module Player" style="swimlane;whiteSpace=wrap;html=1;" parent="1" vertex="1">
          <mxGeometry x="80" y="60" width="130" height="310" as="geometry">
            <mxRectangle x="70" y="140" width="120" height="30" as="alternateBounds" />
          </mxGeometry>
        </mxCell>
        <mxCell id="6rtu0sULZkxl0jV3cqLl-11" value="class Player&lt;br&gt;void KillPlayer()" style="rounded=0;whiteSpace=wrap;html=1;" parent="6rtu0sULZkxl0jV3cqLl-7" vertex="1">
          <mxGeometry x="20" y="30" width="90" height="40" as="geometry" />
        </mxCell>
        <mxCell id="6rtu0sULZkxl0jV3cqLl-12" value="class Movement" style="rounded=0;whiteSpace=wrap;html=1;" parent="6rtu0sULZkxl0jV3cqLl-7" vertex="1">
          <mxGeometry x="20" y="70" width="90" height="30" as="geometry" />
        </mxCell>
        <mxCell id="6rtu0sULZkxl0jV3cqLl-16" style="edgeStyle=orthogonalEdgeStyle;rounded=0;orthogonalLoop=1;jettySize=auto;html=1;" parent="6rtu0sULZkxl0jV3cqLl-7" source="6rtu0sULZkxl0jV3cqLl-14" edge="1">
          <mxGeometry relative="1" as="geometry">
            <mxPoint x="-10" y="60" as="targetPoint" />
            <Array as="points">
              <mxPoint x="-10" y="115" />
              <mxPoint x="-10" y="60" />
            </Array>
          </mxGeometry>
        </mxCell>
        <mxCell id="6rtu0sULZkxl0jV3cqLl-14" value="class Health" style="rounded=0;whiteSpace=wrap;html=1;" parent="6rtu0sULZkxl0jV3cqLl-7" vertex="1">
          <mxGeometry x="20" y="100" width="90" height="30" as="geometry" />
        </mxCell>
        <mxCell id="6rtu0sULZkxl0jV3cqLl-23" style="edgeStyle=orthogonalEdgeStyle;rounded=0;orthogonalLoop=1;jettySize=auto;html=1;" parent="6rtu0sULZkxl0jV3cqLl-7" source="6rtu0sULZkxl0jV3cqLl-17" edge="1">
          <mxGeometry relative="1" as="geometry">
            <mxPoint x="-30" y="60" as="targetPoint" />
          </mxGeometry>
        </mxCell>
        <mxCell id="6rtu0sULZkxl0jV3cqLl-17" value="class Fuel" style="rounded=0;whiteSpace=wrap;html=1;" parent="6rtu0sULZkxl0jV3cqLl-7" vertex="1">
          <mxGeometry x="20" y="130" width="90" height="40" as="geometry" />
        </mxCell>
        <mxCell id="6rtu0sULZkxl0jV3cqLl-21" style="edgeStyle=orthogonalEdgeStyle;rounded=0;orthogonalLoop=1;jettySize=auto;html=1;entryX=0;entryY=0.75;entryDx=0;entryDy=0;" parent="6rtu0sULZkxl0jV3cqLl-7" source="6rtu0sULZkxl0jV3cqLl-20" target="6rtu0sULZkxl0jV3cqLl-11" edge="1">
          <mxGeometry relative="1" as="geometry">
            <Array as="points">
              <mxPoint x="-50" y="190" />
              <mxPoint x="-50" y="60" />
            </Array>
          </mxGeometry>
        </mxCell>
        <mxCell id="6rtu0sULZkxl0jV3cqLl-20" value="class Fire" style="rounded=0;whiteSpace=wrap;html=1;" parent="6rtu0sULZkxl0jV3cqLl-7" vertex="1">
          <mxGeometry x="20" y="170" width="90" height="40" as="geometry" />
        </mxCell>
        <mxCell id="6rtu0sULZkxl0jV3cqLl-24" value="class Gun" style="rounded=0;whiteSpace=wrap;html=1;" parent="6rtu0sULZkxl0jV3cqLl-7" vertex="1">
          <mxGeometry x="20" y="210" width="90" height="30" as="geometry" />
        </mxCell>
        <mxCell id="6rtu0sULZkxl0jV3cqLl-25" value="class Bomb" style="rounded=0;whiteSpace=wrap;html=1;" parent="6rtu0sULZkxl0jV3cqLl-7" vertex="1">
          <mxGeometry x="20" y="260" width="90" height="30" as="geometry" />
        </mxCell>
        <mxCell id="6rtu0sULZkxl0jV3cqLl-26" value="module Input" style="swimlane;whiteSpace=wrap;html=1;" parent="1" vertex="1">
          <mxGeometry x="340" y="60" width="180" height="260" as="geometry" />
        </mxCell>
        <mxCell id="6rtu0sULZkxl0jV3cqLl-31" style="edgeStyle=orthogonalEdgeStyle;rounded=0;orthogonalLoop=1;jettySize=auto;html=1;" parent="6rtu0sULZkxl0jV3cqLl-26" source="6rtu0sULZkxl0jV3cqLl-27" target="6rtu0sULZkxl0jV3cqLl-30" edge="1">
          <mxGeometry relative="1" as="geometry">
            <Array as="points">
              <mxPoint x="190" y="60" />
              <mxPoint x="190" y="190" />
            </Array>
          </mxGeometry>
        </mxCell>
        <mxCell id="6rtu0sULZkxl0jV3cqLl-35" style="edgeStyle=orthogonalEdgeStyle;rounded=0;orthogonalLoop=1;jettySize=auto;html=1;entryX=1;entryY=0.5;entryDx=0;entryDy=0;" parent="6rtu0sULZkxl0jV3cqLl-26" source="6rtu0sULZkxl0jV3cqLl-27" target="6rtu0sULZkxl0jV3cqLl-28" edge="1">
          <mxGeometry relative="1" as="geometry">
            <mxPoint x="160" y="100" as="targetPoint" />
            <Array as="points">
              <mxPoint x="160" y="60" />
              <mxPoint x="160" y="100" />
            </Array>
          </mxGeometry>
        </mxCell>
        <mxCell id="6rtu0sULZkxl0jV3cqLl-36" style="edgeStyle=orthogonalEdgeStyle;rounded=0;orthogonalLoop=1;jettySize=auto;html=1;entryX=1;entryY=0.5;entryDx=0;entryDy=0;" parent="6rtu0sULZkxl0jV3cqLl-26" source="6rtu0sULZkxl0jV3cqLl-27" target="6rtu0sULZkxl0jV3cqLl-29" edge="1">
          <mxGeometry relative="1" as="geometry">
            <mxPoint x="170" y="140" as="targetPoint" />
            <Array as="points">
              <mxPoint x="170" y="60" />
              <mxPoint x="170" y="140" />
            </Array>
          </mxGeometry>
        </mxCell>
        <mxCell id="6rtu0sULZkxl0jV3cqLl-27" value="class InputManager" style="rounded=0;whiteSpace=wrap;html=1;" parent="6rtu0sULZkxl0jV3cqLl-26" vertex="1">
          <mxGeometry x="14" y="40" width="136" height="40" as="geometry" />
        </mxCell>
        <mxCell id="6rtu0sULZkxl0jV3cqLl-28" value="class PCInputHandler : IInputHandler" style="rounded=0;whiteSpace=wrap;html=1;" parent="6rtu0sULZkxl0jV3cqLl-26" vertex="1">
          <mxGeometry x="14" y="80" width="136" height="40" as="geometry" />
        </mxCell>
        <mxCell id="6rtu0sULZkxl0jV3cqLl-29" value="class PCInputHandler : IInputHandler" style="rounded=0;whiteSpace=wrap;html=1;" parent="6rtu0sULZkxl0jV3cqLl-26" vertex="1">
          <mxGeometry x="14" y="120" width="136" height="40" as="geometry" />
        </mxCell>
        <mxCell id="6rtu0sULZkxl0jV3cqLl-30" value="interface IInputHandler&lt;br&gt;&lt;div&gt;void Shoot()&lt;/div&gt;&lt;div&gt;&amp;nbsp; &amp;nbsp; float HorizontalSpeed()&lt;/div&gt;&lt;div&gt;&amp;nbsp; &amp;nbsp; float VerticalSpeed()&lt;/div&gt;" style="rounded=0;whiteSpace=wrap;html=1;" parent="6rtu0sULZkxl0jV3cqLl-26" vertex="1">
          <mxGeometry x="14" y="180" width="146" height="70" as="geometry" />
        </mxCell>
        <mxCell id="6rtu0sULZkxl0jV3cqLl-32" style="edgeStyle=orthogonalEdgeStyle;rounded=0;orthogonalLoop=1;jettySize=auto;html=1;" parent="1" source="6rtu0sULZkxl0jV3cqLl-30" edge="1">
          <mxGeometry relative="1" as="geometry">
            <mxPoint x="190" y="280" as="targetPoint" />
            <Array as="points">
              <mxPoint x="190" y="280" />
            </Array>
          </mxGeometry>
        </mxCell>
        <mxCell id="6rtu0sULZkxl0jV3cqLl-34" style="edgeStyle=orthogonalEdgeStyle;rounded=0;orthogonalLoop=1;jettySize=auto;html=1;entryX=0;entryY=0.5;entryDx=0;entryDy=0;" parent="1" source="6rtu0sULZkxl0jV3cqLl-12" target="6rtu0sULZkxl0jV3cqLl-27" edge="1">
          <mxGeometry relative="1" as="geometry" />
        </mxCell>
        <mxCell id="6rtu0sULZkxl0jV3cqLl-39" value="module Spawner" style="swimlane;whiteSpace=wrap;html=1;" parent="1" vertex="1">
          <mxGeometry x="80" y="420" width="160" height="140" as="geometry" />
        </mxCell>
        <mxCell id="6rtu0sULZkxl0jV3cqLl-40" value="class ObstacleSpawner" style="rounded=0;whiteSpace=wrap;html=1;" parent="6rtu0sULZkxl0jV3cqLl-39" vertex="1">
          <mxGeometry x="10" y="40" width="140" height="40" as="geometry" />
        </mxCell>
        <mxCell id="fnonQ8gdYYeBkg-wgHBt-8" style="edgeStyle=orthogonalEdgeStyle;rounded=0;orthogonalLoop=1;jettySize=auto;html=1;" edge="1" parent="6rtu0sULZkxl0jV3cqLl-39" source="6rtu0sULZkxl0jV3cqLl-41">
          <mxGeometry relative="1" as="geometry">
            <mxPoint x="170" y="99.99999999999989" as="targetPoint" />
          </mxGeometry>
        </mxCell>
        <mxCell id="6rtu0sULZkxl0jV3cqLl-41" value="class EnemySpawner" style="rounded=0;whiteSpace=wrap;html=1;" parent="6rtu0sULZkxl0jV3cqLl-39" vertex="1">
          <mxGeometry x="10" y="80" width="140" height="40" as="geometry" />
        </mxCell>
        <mxCell id="6rtu0sULZkxl0jV3cqLl-42" value="module Objects" style="swimlane;whiteSpace=wrap;html=1;" parent="1" vertex="1">
          <mxGeometry x="560" y="335" width="170" height="465" as="geometry" />
        </mxCell>
        <mxCell id="6rtu0sULZkxl0jV3cqLl-49" style="edgeStyle=orthogonalEdgeStyle;rounded=0;orthogonalLoop=1;jettySize=auto;html=1;entryX=1;entryY=0.5;entryDx=0;entryDy=0;" parent="6rtu0sULZkxl0jV3cqLl-42" source="6rtu0sULZkxl0jV3cqLl-46" target="6rtu0sULZkxl0jV3cqLl-47" edge="1">
          <mxGeometry relative="1" as="geometry">
            <mxPoint x="170" y="95" as="targetPoint" />
            <Array as="points">
              <mxPoint x="200" y="55" />
              <mxPoint x="200" y="95" />
            </Array>
          </mxGeometry>
        </mxCell>
        <mxCell id="6rtu0sULZkxl0jV3cqLl-46" value="class PoolManager" style="rounded=0;whiteSpace=wrap;html=1;" parent="6rtu0sULZkxl0jV3cqLl-42" vertex="1">
          <mxGeometry x="10" y="35" width="150" height="40" as="geometry" />
        </mxCell>
        <mxCell id="6rtu0sULZkxl0jV3cqLl-47" value="class PoolableObject" style="rounded=0;whiteSpace=wrap;html=1;" parent="6rtu0sULZkxl0jV3cqLl-42" vertex="1">
          <mxGeometry x="10" y="75" width="150" height="40" as="geometry" />
        </mxCell>
        <mxCell id="6rtu0sULZkxl0jV3cqLl-50" value="class ObjectManager" style="rounded=0;whiteSpace=wrap;html=1;" parent="6rtu0sULZkxl0jV3cqLl-42" vertex="1">
          <mxGeometry x="10" y="125" width="150" height="40" as="geometry" />
        </mxCell>
        <mxCell id="6rtu0sULZkxl0jV3cqLl-52" value="class UFO" style="rounded=0;whiteSpace=wrap;html=1;" parent="6rtu0sULZkxl0jV3cqLl-42" vertex="1">
          <mxGeometry x="10" y="182.5" width="150" height="40" as="geometry" />
        </mxCell>
        <mxCell id="6rtu0sULZkxl0jV3cqLl-53" value="class UFOProjectile" style="rounded=0;whiteSpace=wrap;html=1;" parent="6rtu0sULZkxl0jV3cqLl-42" vertex="1">
          <mxGeometry x="10" y="222.5" width="150" height="40" as="geometry" />
        </mxCell>
        <mxCell id="6rtu0sULZkxl0jV3cqLl-58" style="edgeStyle=orthogonalEdgeStyle;rounded=0;orthogonalLoop=1;jettySize=auto;html=1;entryX=1;entryY=0.75;entryDx=0;entryDy=0;" parent="6rtu0sULZkxl0jV3cqLl-42" source="6rtu0sULZkxl0jV3cqLl-54" target="6rtu0sULZkxl0jV3cqLl-56" edge="1">
          <mxGeometry relative="1" as="geometry">
            <Array as="points">
              <mxPoint x="230" y="295" />
              <mxPoint x="230" y="385" />
            </Array>
          </mxGeometry>
        </mxCell>
        <mxCell id="6rtu0sULZkxl0jV3cqLl-59" style="edgeStyle=orthogonalEdgeStyle;rounded=0;orthogonalLoop=1;jettySize=auto;html=1;entryX=1;entryY=0.5;entryDx=0;entryDy=0;" parent="6rtu0sULZkxl0jV3cqLl-42" source="6rtu0sULZkxl0jV3cqLl-54" target="6rtu0sULZkxl0jV3cqLl-55" edge="1">
          <mxGeometry relative="1" as="geometry">
            <Array as="points">
              <mxPoint x="210" y="295" />
              <mxPoint x="210" y="335" />
            </Array>
          </mxGeometry>
        </mxCell>
        <mxCell id="6rtu0sULZkxl0jV3cqLl-54" value="class Obstacle" style="rounded=0;whiteSpace=wrap;html=1;" parent="6rtu0sULZkxl0jV3cqLl-42" vertex="1">
          <mxGeometry x="10" y="275" width="150" height="40" as="geometry" />
        </mxCell>
        <mxCell id="6rtu0sULZkxl0jV3cqLl-55" value="class ObstacleCollisionHandler" style="rounded=0;whiteSpace=wrap;html=1;" parent="6rtu0sULZkxl0jV3cqLl-42" vertex="1">
          <mxGeometry x="10" y="315" width="150" height="40" as="geometry" />
        </mxCell>
        <mxCell id="6rtu0sULZkxl0jV3cqLl-56" value="class ObstacleMover" style="rounded=0;whiteSpace=wrap;html=1;" parent="6rtu0sULZkxl0jV3cqLl-42" vertex="1">
          <mxGeometry x="10" y="355" width="150" height="40" as="geometry" />
        </mxCell>
        <mxCell id="6rtu0sULZkxl0jV3cqLl-57" value="class Asteroid : Obstacle" style="rounded=0;whiteSpace=wrap;html=1;" parent="6rtu0sULZkxl0jV3cqLl-42" vertex="1">
          <mxGeometry x="10" y="405" width="150" height="40" as="geometry" />
        </mxCell>
        <mxCell id="6rtu0sULZkxl0jV3cqLl-43" value="Side Scripts" style="swimlane;whiteSpace=wrap;html=1;" parent="1" vertex="1">
          <mxGeometry x="560" y="60" width="160" height="230" as="geometry" />
        </mxCell>
        <mxCell id="6rtu0sULZkxl0jV3cqLl-38" value="class TagStorage" style="rounded=0;whiteSpace=wrap;html=1;" parent="6rtu0sULZkxl0jV3cqLl-43" vertex="1">
          <mxGeometry x="20" y="30" width="120" height="30" as="geometry" />
        </mxCell>
        <mxCell id="6rtu0sULZkxl0jV3cqLl-37" value="class Background" style="rounded=0;whiteSpace=wrap;html=1;" parent="6rtu0sULZkxl0jV3cqLl-43" vertex="1">
          <mxGeometry x="20" y="70" width="120" height="30" as="geometry" />
        </mxCell>
        <mxCell id="6rtu0sULZkxl0jV3cqLl-44" value="class Rotator" style="rounded=0;whiteSpace=wrap;html=1;" parent="6rtu0sULZkxl0jV3cqLl-43" vertex="1">
          <mxGeometry x="20" y="110" width="120" height="30" as="geometry" />
        </mxCell>
        <mxCell id="6rtu0sULZkxl0jV3cqLl-45" value="class Pool" style="rounded=0;whiteSpace=wrap;html=1;" parent="6rtu0sULZkxl0jV3cqLl-43" vertex="1">
          <mxGeometry x="20" y="150" width="120" height="30" as="geometry" />
        </mxCell>
        <mxCell id="6rtu0sULZkxl0jV3cqLl-60" style="edgeStyle=orthogonalEdgeStyle;rounded=0;orthogonalLoop=1;jettySize=auto;html=1;entryX=1.01;entryY=0.613;entryDx=0;entryDy=0;entryPerimeter=0;" parent="6rtu0sULZkxl0jV3cqLl-43" target="6rtu0sULZkxl0jV3cqLl-44" edge="1">
          <mxGeometry relative="1" as="geometry">
            <Array as="points">
              <mxPoint x="230" y="570" />
              <mxPoint x="230" y="128" />
              <mxPoint x="150" y="128" />
            </Array>
            <mxPoint x="170.0100000000001" y="569.9885057471265" as="sourcePoint" />
            <mxPoint x="150.01" y="125" as="targetPoint" />
          </mxGeometry>
        </mxCell>
        <mxCell id="fnonQ8gdYYeBkg-wgHBt-10" value="class ScoreCounter" style="rounded=0;whiteSpace=wrap;html=1;" vertex="1" parent="6rtu0sULZkxl0jV3cqLl-43">
          <mxGeometry x="20" y="190" width="120" height="30" as="geometry" />
        </mxCell>
        <mxCell id="6rtu0sULZkxl0jV3cqLl-48" style="edgeStyle=orthogonalEdgeStyle;rounded=0;orthogonalLoop=1;jettySize=auto;html=1;" parent="1" source="6rtu0sULZkxl0jV3cqLl-46" edge="1">
          <mxGeometry relative="1" as="geometry">
            <mxPoint x="700" y="230" as="targetPoint" />
            <Array as="points">
              <mxPoint x="760" y="380" />
              <mxPoint x="760" y="230" />
              <mxPoint x="700" y="230" />
            </Array>
          </mxGeometry>
        </mxCell>
        <mxCell id="6rtu0sULZkxl0jV3cqLl-61" value="module UI" style="swimlane;whiteSpace=wrap;html=1;" parent="1" vertex="1">
          <mxGeometry x="340" y="380" width="146" height="220" as="geometry" />
        </mxCell>
        <mxCell id="6rtu0sULZkxl0jV3cqLl-62" value="class Health" style="rounded=0;whiteSpace=wrap;html=1;" parent="6rtu0sULZkxl0jV3cqLl-61" vertex="1">
          <mxGeometry x="26" y="45" width="90" height="30" as="geometry" />
        </mxCell>
        <mxCell id="fnonQ8gdYYeBkg-wgHBt-4" style="edgeStyle=orthogonalEdgeStyle;rounded=0;orthogonalLoop=1;jettySize=auto;html=1;" edge="1" parent="6rtu0sULZkxl0jV3cqLl-61" source="6rtu0sULZkxl0jV3cqLl-63">
          <mxGeometry relative="1" as="geometry">
            <mxPoint x="-20" y="-100" as="targetPoint" />
          </mxGeometry>
        </mxCell>
        <mxCell id="6rtu0sULZkxl0jV3cqLl-63" value="class Gun" style="rounded=0;whiteSpace=wrap;html=1;" parent="6rtu0sULZkxl0jV3cqLl-61" vertex="1">
          <mxGeometry x="26" y="75" width="90" height="30" as="geometry" />
        </mxCell>
        <mxCell id="fnonQ8gdYYeBkg-wgHBt-1" value="class Fuel" style="rounded=0;whiteSpace=wrap;html=1;" vertex="1" parent="6rtu0sULZkxl0jV3cqLl-61">
          <mxGeometry x="26" y="105" width="90" height="30" as="geometry" />
        </mxCell>
        <mxCell id="fnonQ8gdYYeBkg-wgHBt-2" value="class Fire" style="rounded=0;whiteSpace=wrap;html=1;" vertex="1" parent="6rtu0sULZkxl0jV3cqLl-61">
          <mxGeometry x="26" y="135" width="90" height="30" as="geometry" />
        </mxCell>
        <mxCell id="fnonQ8gdYYeBkg-wgHBt-9" value="class ScoreCounter" style="rounded=0;whiteSpace=wrap;html=1;" vertex="1" parent="6rtu0sULZkxl0jV3cqLl-61">
          <mxGeometry x="26" y="175" width="90" height="30" as="geometry" />
        </mxCell>
        <mxCell id="fnonQ8gdYYeBkg-wgHBt-3" style="edgeStyle=orthogonalEdgeStyle;rounded=0;orthogonalLoop=1;jettySize=auto;html=1;exitX=0;exitY=0.5;exitDx=0;exitDy=0;entryX=1;entryY=0.5;entryDx=0;entryDy=0;" edge="1" parent="1" source="6rtu0sULZkxl0jV3cqLl-62" target="6rtu0sULZkxl0jV3cqLl-14">
          <mxGeometry relative="1" as="geometry">
            <Array as="points">
              <mxPoint x="300" y="440" />
              <mxPoint x="300" y="175" />
            </Array>
          </mxGeometry>
        </mxCell>
        <mxCell id="fnonQ8gdYYeBkg-wgHBt-5" style="edgeStyle=orthogonalEdgeStyle;rounded=0;orthogonalLoop=1;jettySize=auto;html=1;entryX=1;entryY=0.5;entryDx=0;entryDy=0;" edge="1" parent="1" source="fnonQ8gdYYeBkg-wgHBt-1" target="6rtu0sULZkxl0jV3cqLl-17">
          <mxGeometry relative="1" as="geometry">
            <Array as="points">
              <mxPoint x="290" y="500" />
              <mxPoint x="290" y="210" />
            </Array>
          </mxGeometry>
        </mxCell>
        <mxCell id="fnonQ8gdYYeBkg-wgHBt-6" style="edgeStyle=orthogonalEdgeStyle;rounded=0;orthogonalLoop=1;jettySize=auto;html=1;entryX=1;entryY=0.5;entryDx=0;entryDy=0;" edge="1" parent="1" source="fnonQ8gdYYeBkg-wgHBt-2" target="6rtu0sULZkxl0jV3cqLl-20">
          <mxGeometry relative="1" as="geometry" />
        </mxCell>
        <mxCell id="fnonQ8gdYYeBkg-wgHBt-7" style="edgeStyle=orthogonalEdgeStyle;rounded=0;orthogonalLoop=1;jettySize=auto;html=1;entryX=0;entryY=0.5;entryDx=0;entryDy=0;" edge="1" parent="1" source="6rtu0sULZkxl0jV3cqLl-40" target="6rtu0sULZkxl0jV3cqLl-46">
          <mxGeometry relative="1" as="geometry">
            <Array as="points">
              <mxPoint x="260" y="480" />
              <mxPoint x="260" y="770" />
              <mxPoint x="540" y="770" />
              <mxPoint x="540" y="390" />
            </Array>
          </mxGeometry>
        </mxCell>
        <mxCell id="fnonQ8gdYYeBkg-wgHBt-11" style="edgeStyle=orthogonalEdgeStyle;rounded=0;orthogonalLoop=1;jettySize=auto;html=1;entryX=0;entryY=0.25;entryDx=0;entryDy=0;" edge="1" parent="1" source="fnonQ8gdYYeBkg-wgHBt-9" target="fnonQ8gdYYeBkg-wgHBt-10">
          <mxGeometry relative="1" as="geometry">
            <Array as="points">
              <mxPoint x="530" y="570" />
              <mxPoint x="530" y="258" />
            </Array>
          </mxGeometry>
        </mxCell>
        <mxCell id="fnonQ8gdYYeBkg-wgHBt-12" value="module SaveSystem" style="swimlane;whiteSpace=wrap;html=1;" vertex="1" parent="1">
          <mxGeometry x="80" y="600" width="165" height="200" as="geometry" />
        </mxCell>
        <mxCell id="fnonQ8gdYYeBkg-wgHBt-13" value="class SaveSystem" style="rounded=0;whiteSpace=wrap;html=1;" vertex="1" parent="fnonQ8gdYYeBkg-wgHBt-12">
          <mxGeometry x="10" y="40" width="140" height="40" as="geometry" />
        </mxCell>
        <mxCell id="fnonQ8gdYYeBkg-wgHBt-14" value="struct Score" style="rounded=0;whiteSpace=wrap;html=1;" vertex="1" parent="fnonQ8gdYYeBkg-wgHBt-12">
          <mxGeometry x="10" y="140" width="140" height="40" as="geometry" />
        </mxCell>
        <mxCell id="fnonQ8gdYYeBkg-wgHBt-16" style="edgeStyle=orthogonalEdgeStyle;rounded=0;orthogonalLoop=1;jettySize=auto;html=1;entryX=0;entryY=0.5;entryDx=0;entryDy=0;" edge="1" parent="fnonQ8gdYYeBkg-wgHBt-12" source="fnonQ8gdYYeBkg-wgHBt-15" target="fnonQ8gdYYeBkg-wgHBt-13">
          <mxGeometry relative="1" as="geometry">
            <Array as="points">
              <mxPoint x="-10" y="110" />
              <mxPoint x="-10" y="60" />
            </Array>
          </mxGeometry>
        </mxCell>
        <mxCell id="fnonQ8gdYYeBkg-wgHBt-15" value="class ScoreSaver" style="rounded=0;whiteSpace=wrap;html=1;" vertex="1" parent="fnonQ8gdYYeBkg-wgHBt-12">
          <mxGeometry x="10" y="90" width="140" height="40" as="geometry" />
        </mxCell>
      </root>
    </mxGraphModel>
  </diagram>
</mxfile>
